/* XPM */
static char *_000[] = {
/* columns rows colors chars-per-pixel */
"32 32 155 2 ",
"   c None",
".  c #3A4C4A",
"X  c #3A554E",
"o  c #3F5452",
"O  c #3E5C54",
"+  c #386154",
"@  c #3C6658",
"#  c #3D6D5D",
"$  c #3F7764",
"%  c #475351",
"&  c #425C56",
"*  c #63594C",
"=  c #436559",
"-  c #45685E",
";  c #766B59",
":  c #446B60",
">  c #496D63",
",  c #437362",
"<  c #4B7466",
"1  c #427966",
"2  c #467C69",
"3  c #4F7969",
"4  c #567C6A",
"5  c #5D7E6D",
"6  c #676D63",
"7  c #746C60",
"8  c #7C7364",
"9  c #867966",
"0  c #807468",
"q  c #837C6D",
"w  c #877F71",
"e  c #897A73",
"r  c #47856F",
"t  c #4C836F",
"y  c #4A8671",
"u  c #4A8A73",
"i  c #558973",
"p  c #4D937A",
"a  c #4F987D",
"s  c #53947C",
"d  c #5B927B",
"f  c #52997F",
"g  c #608470",
"h  c #6F8D79",
"j  c #738B79",
"k  c #7B8C7A",
"l  c #75937D",
"z  c #90836E",
"x  c #878071",
"c  c #898172",
"v  c #8E8679",
"b  c #848C7B",
"n  c #938875",
"m  c #9B8D76",
"M  c #958C7B",
"N  c #9C8E78",
"B  c #8E907D",
"V  c #A09077",
"C  c #A5957C",
"Z  c #529C81",
"A  c #5B9C83",
"S  c #639C82",
"D  c #799783",
"F  c #54A487",
"G  c #54A688",
"H  c #5CA489",
"J  c #76A18A",
"K  c #8F9582",
"L  c #9D9382",
"P  c #979886",
"I  c #979D8A",
"U  c #999A88",
"Y  c #A09585",
"T  c #A39886",
"R  c #A3938C",
"E  c #A59C8A",
"W  c #A89E8B",
"Q  c #8CA28D",
"!  c #ACA18D",
"~  c #B1A58E",
"^  c #ADA490",
"/  c #ADAB96",
"(  c #B2A693",
")  c #B5AA95",
"_  c #B8AC96",
"`  c #B7AD98",
"'  c #B9AE99",
"]  c #BEB29B",
"[  c #BDB19A",
"{  c #BDB09C",
"}  c #BDB39C",
"|  c #BFB39D",
" . c #BFB39C",
".. c #BFB39E",
"X. c #BFB39F",
"o. c #BEB49E",
"O. c #BFB69F",
"+. c #BBB19B",
"@. c #BAAAA2",
"#. c #C0B39D",
"$. c #C1B59F",
"%. c #C2B59F",
"&. c #C1B69F",
"*. c #C2B69F",
"=. c #C1B5A0",
"-. c #C2B5A0",
";. c #C1B6A1",
":. c #C2B6A0",
">. c #C3B7A0",
",. c #C2B6A1",
"<. c #C2B7A1",
"1. c #C3B7A1",
"2. c #C1B7A2",
"3. c #C2B6A2",
"4. c #C3B7A2",
"5. c #C4B7A1",
"6. c #C2B8A1",
"7. c #C3B8A2",
"8. c #C3B9A3",
"9. c #C4B9A1",
"0. c #C4B8A2",
"q. c #C5B9A2",
"w. c #C4B8A3",
"e. c #C5B9A3",
"r. c #C6BAA2",
"t. c #C6BAA3",
"y. c #C7BAA3",
"u. c #C6BBA3",
"i. c #C4B8A4",
"p. c #C5BAA4",
"a. c #C6BAA4",
"s. c #C7BAA4",
"d. c #C6BBA4",
"f. c #C7BBA4",
"g. c #C6BBA5",
"h. c #C7BBA6",
"j. c #C8BBA4",
"k. c #C8BBA5",
"l. c #C8BCA4",
"z. c #C9BCA4",
"x. c #C8BCA5",
"c. c #C9BDA5",
"v. c #CABEA5",
"b. c #C8BCA6",
"n. c #C8BDA6",
"m. c #C9BDA6",
"M. c #C9BDA7",
"N. c #CABDA6",
"B. c #CABDA7",
"V. c #C9BEA6",
"C. c #CABEA6",
"Z. c #CBBEA6",
"A. c #CABFA6",
"S. c #CABEA7",
"D. c #CBBEA7",
/* pixels */
"                                                                ",
"                                                                ",
"                                                                ",
"                                                                ",
"                            ^ ( ' v L W                         ",
"                        ) m.m.m.m.m.1.W ! T                     ",
"                    M #.m.1.[ s.m.m.m.m.E ) ~ M ! +.            ",
"                  ) m.+.' 1.s.{ { m.( _ m.E ! W W s.$.          ",
"                E 1.' m.m.m.m.m.m.m.9.s.m.1.T ' s.L m.T         ",
"              E ' ) m.( W E $.m.m._ ( m.{ m.s.T { 5.E {         ",
"              ) [ m.m.M q c v ' m.m.) 1.m.m.m.^ E m.{ s.W       ",
"            T 9.m.m.E x c c c q 1.m.s.^ 9.m.m.9.M s.m.m.s.      ",
"          { m.m.m.' w c c c c c L m.m.) ) m.m.m.Y 8.m.m.m.`     ",
"        E m.$.$.' v c c c c c c c ! m.9.^ $.m.m.) E m.m.m.m.    ",
"        { m.{ E q c c c c c c c c c ! k.^ ) 1.m.m.) m.m.9.o.v   ",
"        $.) m.L w c c c c c c c c c c E ( 1.( m.m.m.m.m.8.D 4   ",
"      ^ ! m.m.n q c c c c c c c c c c v { ( ) ) 1.W m.m.I d s   ",
"      E $.m.[ M q c c c c c c c c c x M 9.m.! o.' W 8.Q S Z Z 3 ",
"    W ( m.9.E L q c c c c c c c c c c L 1.k._ m.T 1.E h f G p > ",
"p i ) 9.m._ ! M x c c c c c c c c c c w ) m.) ^ / 1.k s G G y - ",
"G l s.m.m.{ ) n c c c c c c c c c c q T m.m.) K d g s F G G Z < ",
"f / m.m.m.1.) q c c c c c c c c c x c 1.m.8.b A F a a G G Z y & ",
"H S j U m.) ) c c x 7 8 q 8 q 8 8 q { s.P J A G u a p y t = : & ",
"G 2 1 < B ( L 0 m n z 9 N C C C N ' ^ 5 2 1 u F F F f , X O & o ",
"Z s , , 6 @.R e * N C C C C V m v ) ^ b 2 # r t y y # 2 $ + & & ",
",                     C N ;           =   @ # # , , , # = % .   ",
"                                                                ",
"                                                                ",
"                                                                ",
"                                                                ",
"                                                                ",
"                                                                "
};
