/* XPM */
static char *_000[] = {
/* columns rows colors chars-per-pixel */
"32 32 180 2 ",
"   c None",
".  c #020305",
"X  c #07080B",
"o  c #0B0E13",
"O  c #0D141F",
"+  c #111313",
"@  c #1D1D1D",
"#  c #151817",
"$  c #0D1522",
"%  c #0E1826",
"&  c #0F1A2A",
"*  c #151B27",
"=  c #1C2C2A",
"-  c #1E2220",
";  c #1A332E",
":  c #1D2734",
">  c #14253B",
",  c #19273A",
"<  c #1C3630",
"1  c #1C303E",
"2  c #212322",
"3  c #242927",
"4  c #2A3B3A",
"5  c #343938",
"6  c #1F443C",
"7  c #172942",
"8  c #192D46",
"9  c #192D48",
"0  c #1D3342",
"q  c #1E3656",
"w  c #1F3858",
"e  c #1E3759",
"r  c #2C3A48",
"t  c #343C4C",
"y  c #263456",
"u  c #333D51",
"i  c #203C60",
"p  c #3F3F71",
"a  c #194B4A",
"s  c #254B44",
"d  c #2F4645",
"f  c #3D4544",
"g  c #264559",
"h  c #3E4D56",
"j  c #235252",
"k  c #3E5758",
"l  c #30655A",
"z  c #244166",
"x  c #2B486D",
"c  c #344862",
"v  c #34536C",
"b  c #274873",
"n  c #294D79",
"m  c #294871",
"M  c #3F4375",
"N  c #3B487A",
"B  c #2E517E",
"V  c #375672",
"C  c #28716F",
"Z  c #434342",
"A  c #4C4C4C",
"S  c #404A46",
"D  c #4A504F",
"F  c #464D55",
"G  c #4A5354",
"H  c #4B595D",
"J  c #4C5856",
"K  c #555555",
"L  c #545E5B",
"P  c #5C5D5E",
"I  c #67475A",
"U  c #61545E",
"Y  c #43556E",
"T  c #4A4E7B",
"R  c #404273",
"E  c #705A6A",
"W  c #486666",
"Q  c #556568",
"!  c #476178",
"~  c #586B7A",
"^  c #567777",
"/  c #636464",
"(  c #646669",
")  c #636C74",
"_  c #6B7979",
"`  c #7C7C7C",
"'  c #2E5B8B",
"]  c #2B5485",
"[  c #315585",
"{  c #335E94",
"}  c #3F6288",
"|  c #36659F",
" . c #396394",
".. c #3666A2",
"X. c #3668A4",
"o. c #3A6EAC",
"O. c #3A6FB0",
"+. c #3C73B6",
"@. c #3D76BA",
"#. c #425690",
"$. c #425C9A",
"%. c #436181",
"&. c #576584",
"*. c #446894",
"=. c #567395",
"-. c #687887",
";. c #767783",
":. c #6D7693",
">. c #4363A4",
",. c #416FB3",
"<. c #4576BC",
"1. c #5D7DB0",
"2. c #3F79C1",
"3. c #4777C0",
"4. c #417CC4",
"5. c #427FC8",
"6. c #857286",
"7. c #658788",
"8. c #74858E",
"9. c #7C8F8A",
"0. c #7B878A",
"q. c #6C8699",
"w. c #6D9293",
"e. c #5B88BA",
"r. c #6384AB",
"t. c #6A8CAA",
"y. c #6B97BB",
"u. c #6795BF",
"i. c #799EBC",
"p. c #4982C9",
"a. c #568BC9",
"s. c #5F96CE",
"d. c #4585D2",
"f. c #4984D3",
"g. c #468BDC",
"h. c #4A8CDD",
"j. c #4588D7",
"k. c #6499CE",
"l. c #699BCA",
"z. c #6A9DD0",
"x. c #72A4C3",
"c. c #498FE1",
"v. c #4A91E5",
"b. c #4C95EC",
"n. c #4D98EF",
"m. c #539AED",
"M. c #599EEC",
"N. c #4D97F1",
"B. c #4C98F0",
"V. c #6AA8EC",
"C. c #868789",
"Z. c #859499",
"A. c #919395",
"S. c #8CA29B",
"D. c #859DA1",
"F. c #8995AD",
"G. c #8FA6A2",
"H. c #91A8B0",
"J. c #9EB0BB",
"K. c #ABADAF",
"L. c #A2BCB6",
"P. c #AAC4BD",
"I. c #81A9C8",
"U. c #8CB5CC",
"Y. c #81A9D4",
"T. c #8AB5D6",
"R. c #98C4D3",
"E. c #A9C7CE",
"W. c #B8D4CC",
"Q. c #A8D3DA",
"!. c #BFDDD5",
"~. c #C0C2C4",
"^. c #C4E3DA",
"/. c #E0E0DF",
"(. c #CCECE4",
"). c #CCF2EE",
"_. c #D3F5EC",
"`. c #D6F8EF",
"'. c #DAFEF4",
"]. c #D6F9F0",
/* pixels */
"                                      $ 9 w q %                 ",
"                                $ b 5.+.n.b.B.g.z               ",
"                            > ' d.g.B.g.B.B.c.B.n.e             ",
"                        O 9 ..d.b.b.B.B.B.B...v.B.4.%           ",
"                      : m @.g.h.B.B.B.B.B.B.v.n.B.n.z           ",
"                ; s t a.2.r.( * b v.B.B.B.B.B.B.B.B.X.          ",
"                w.h z.n.@.A./.( . X.B.B.B.B.B.B.B.B.g..         ",
"              < ^ q.m.B.o.K.A @ . b B.B.B.B.B.B.B.n.v.&         ",
"                < T.B.B.c.-.C.@ X @.B.B.N.B.n.<.' g r           ",
"                4 i.B.B.B.v.B x +.B.B.v.p. .% W C j @           ",
"              s 6.~ m.b.b.B.B.B.B.v.*.c o 5 a C 4 2             ",
"                7.f :.p N g.B.B.B.n.* X o a = Z K f G           ",
"                  ; _ #.f.n.B.B.B.n.& + D f L 9.L.`.S.          ",
"                  7.U V.B.B.B.B.B.n.Q !.!.^.`.'.(._ 3           ",
"                  H I i.h.h.b.B.B.n.y.].'._.P.Q #               ",
"                    = F T R $.B.B.B.h.E.'.9.-                   ",
"                    8.I &.$.v.B.B.B.n.U.'.'.0.        Z         ",
"                    W E r.b.B.B.B.B.N.y.L.9.Q [ C.9 &.(         ",
"                      ; t.B.B.B.B.B.b.5.5.v.n.e.P { =.`         ",
"                    ^ 0.I.n.B.B.B.B.B.n.n.n.p.) P n G 5         ",
"                    ;.E Y.n.B.B.B.B.B.d.} -.H Z                 ",
"                s ) d Z.T f.B.B.B.B.B.B.e.'.`.W.2               ",
"            l 6 k I D.1.M 3.B.B.B.B.B.B.x.'.'.].5               ",
"    > d 7.s ;.^ G E.V.n.h.b.B.B.B.B.n.v.R.'.'.'.J   A ` K       ",
"    4.k.8.Z.H.J.F.M.B.j.g.B.B.B.B.n.j.%.(.'.'.'.D   Y V         ",
"    ' b.#.<.n.,.M n.B.o.c.B.B.B.b.>.M t ^.'.'._.u h.v.y         ",
"    > 4.c.n.B.n.f.B.B. .n.B.B.B.B.n.<.u ^.'.'.G.{ B.,.*         ",
"      o ! l.k.s.k.l.y.n B.B.B.B.g.{ | v R.Q.D.z b.b.N X         ",
"          _ P.`.'.).x.] B.B.B.B.b.2.7 0 V 1 7 X.O...,           ",
"              S L k 1 | B.B.B.B.h.m : +                         ",
"                      { n.n.n.B.a.~.K A                         ",
"                        > 7 q i h A./ @                         "
};
