/* XPM */
static char *result[] = {
/* columns rows colors chars-per-pixel */
"32 32 179 2 ",
"   c #030304",
".  c #050B0A",
"X  c #0C0E19",
"o  c #09131C",
"O  c #121314",
"+  c #1C1D1E",
"@  c #111E1E",
"#  c #0E1724",
"$  c #0F1A2B",
"%  c #101923",
"&  c #111C2D",
"*  c #161924",
"=  c #171E33",
"-  c #122622",
";  c #1B2626",
":  c #152434",
">  c #182638",
",  c #1D3732",
"<  c #2B2B2B",
"1  c gray15",
"2  c #2F302F",
"3  c #2B3739",
"4  c #363A39",
"5  c #38403E",
"6  c #192B46",
"7  c #182D4A",
"8  c #1A314D",
"9  c #1E3756",
"0  c #1F3859",
"q  c #242542",
"w  c #263C57",
"e  c #2B3847",
"r  c #243F63",
"t  c #473C47",
"y  c #254A43",
"u  c #294F49",
"i  c #214E4C",
"p  c #3B4543",
"a  c #344A46",
"s  c #2E4550",
"d  c #35455D",
"f  c #2F5750",
"g  c #3A5854",
"h  c #16605F",
"j  c #2A4D64",
"k  c #2A496F",
"l  c #24476F",
"z  c #2B4B72",
"x  c #274973",
"c  c #3F4172",
"v  c #35547A",
"b  c #1C716F",
"n  c #2D6564",
"m  c #3E6763",
"M  c #377366",
"N  c #444F4C",
"B  c #474A48",
"V  c #464B52",
"C  c #594C57",
"Z  c #4A525B",
"A  c #4B5B5B",
"S  c #595859",
"D  c #545A5C",
"F  c #614A5C",
"G  c #62555F",
"H  c #54605E",
"J  c #455A67",
"K  c #575D65",
"L  c #444978",
"P  c #466C68",
"I  c #546362",
"U  c #5D6A6C",
"Y  c #596563",
"T  c #4A687C",
"R  c #4F7574",
"E  c #5E7679",
"W  c #626263",
"Q  c #696F6F",
"!  c #626B76",
"~  c #7D6D7F",
"^  c #64747B",
"/  c #767675",
"(  c #2F598C",
")  c #2B5F82",
"_  c #365589",
"`  c #325F96",
"'  c #33629A",
"]  c #3669A4",
"[  c #3A6EAD",
"{  c #3667A3",
"}  c #3A70AF",
"|  c #3C73B6",
" . c #3D76BB",
".. c #3E78BE",
"X. c #404C81",
"o. c #40538C",
"O. c #515680",
"+. c #445E9C",
"@. c #425793",
"#. c #486787",
"$. c #526A88",
"%. c #47718A",
"&. c #4B6594",
"*. c #4F7593",
"=. c #59779B",
"-. c #6B7786",
";. c #687C85",
":. c #747884",
">. c #6B7E98",
",. c #737E96",
"<. c #4368AA",
"1. c #4A74A7",
"2. c #447DBF",
"3. c #3F7AC2",
"4. c #427CC4",
"5. c #417EC8",
"6. c #487DC9",
"7. c #88778C",
"8. c #5C809B",
"9. c #69868A",
"0. c #768587",
"q. c #7D918C",
"w. c #769499",
"e. c #688DB7",
"r. c #7A97BD",
"t. c #4382CD",
"y. c #4D88C9",
"u. c #5F97CF",
"i. c #4586D2",
"p. c #4985D4",
"a. c #478BDC",
"s. c #4A8BDD",
"d. c #4789D5",
"f. c #6399CE",
"g. c #6B9CCD",
"h. c #6095D6",
"j. c #6FA0C9",
"k. c #6FA1DC",
"l. c #498EE1",
"z. c #4A91E6",
"x. c #4C95EC",
"c. c #4D98EF",
"v. c #5A9EEE",
"b. c #5D9EE7",
"n. c #4D97F0",
"m. c #4C98F0",
"M. c #6FAEEF",
"N. c #7CB3EA",
"B. c #878488",
"V. c #868C93",
"C. c #829594",
"Z. c #839B99",
"A. c #989897",
"S. c #848EA1",
"D. c #958DA1",
"F. c #82A0AB",
"G. c #99B1AB",
"H. c #9AADB8",
"J. c #A2A3A2",
"K. c #86ADC8",
"L. c #91AFC3",
"P. c #94BED2",
"I. c #87B9E9",
"U. c #9ED0DC",
"Y. c #B2CEC7",
"T. c #B4D2CD",
"R. c #B9D6CF",
"E. c #A2CBD4",
"W. c #BEDDD4",
"Q. c #A3CAE3",
"!. c #B7E2E7",
"~. c #C7E7DE",
"^. c #C8E9DF",
"/. c #C7E9E3",
"(. c #CFF0E7",
"). c #D4F5EC",
"_. c #DAFDF4",
"`. c #EFEFEE",
"'. c None",
/* pixels */
"'.'.'.'.'.'.o 8 0 9 $ o '.'.'.'.'.'.'.'.'.'.'.'.'.'.'.'.'.'.'.'.",
"'.'.'.'.'.6 t.n.x.c. .t.( & '.'.'.'.'.'.'.'.'.'.'.'.'.'.'.'.'.'.",
"'.'.'.'.# d.c.l.m.m.l.m.m.5.| 8 '.'.'.'.'.'.'.'.'.'.'.'.'.'.'.'.",
"'.'.'.'.` m.n.` m.m.m.m.m.z.z.| 0 & '.'.'.'.'.'.'.'.'.'.'.'.'.'.",
"'.'.'.: i.m.m.z.m.m.m.m.n.c.z.s.t.x w '.'.'.'.'.'.'.'.'.'.'.'.'.",
"'.'.'.l m.m.m.m.m.m.m.m.c.' % D >.i.2.T ; y '.'.'.'.'.'.'.'.'.'.",
"'.'.'.' c.m.m.m.m.m.m.m.5.X + `.J.1.c.b.I 9.y '.'.'.'.'.'.'.'.'.",
"'.'.'. .c.m.m.m.m.m.m.m.]     S A.&.c.m.I.A f '.'.'.'.'.'.'.'.'.",
"'.'.'.3 e ) } z.c.x.x.c.d.$ O S V.6.n.n.M.g '.'.'.'.'.'.'.'.'.'.",
"'.'.'.'.3 b R o v t.l.c.m.i.l z p.n.n.n.N.a , '.'.'.'.'.'.'.'.'.",
"'.'.'.'.2 B n h 3 * > =.t.m.m.m.n.n.n.n.K.F m '.'.'.'.'.'.'.'.'.",
"'.'.'.p N < < O i @   - 3.m.m.m.x.o.r O.Z E u '.'.'.'.'.'.'.'.'.",
"'.'.'.U ).Y.C.H B N + @ t.m.m.m.n.s.+.,.a . '.'.'.'.'.'.'.'.'.'.",
"'.'.'.'.A R._._.~.~.W.w.| m.m.m.n.n.b.^ :.'.'.'.'.'.'.'.'.'.'.'.",
"'.'.'.'.'.'.N G.^._._.H.z.m.m.m.l.s.g.C :.'.'.'.'.'.'.'.'.'.'.'.",
"'.'.'.'.'.'.'.'.H ).).y.m.m.m.5.c L ! ; '.'.'.'.'.'.'.'.'.'.'.'.",
"'.'.'.'.'.'.'.I )._.T.c.m.m.m.m.<.L G D.u '.'.'.'.'.'.'.'.'.'.'.",
"'.'.B -.x Q #.J 0.G.r.c.m.m.m.m.n.k.t :.'.'.'.'.'.'.'.'.'.'.'.'.",
"'.'.W -.4.V =.c.z.y...c.m.m.m.m.c.N.- - '.'.'.'.'.'.'.'.'.'.'.'.",
"'.'.1 W k Z W e.z.x.c.m.m.m.m.m.n.I.! w.y '.'.'.'.'.'.'.'.'.'.'.",
"'.'.'.'.'.'.< D 9.#. .c.m.m.m.m.n.h.7.7.u '.'.'.'.'.'.'.'.'.'.'.",
"'.'.'.'.'.'.G.(._.P.c.c.m.m.m.m.l.X.S.p I A '.'.'.'.'.'.'.'.'.'.",
"'.'.'.'.'.; W._._.E.x.c.m.m.m.m.l.c &.L.C I - M '.'.'.'.'.'.'.'.",
"'.'.B./ '.5 ^._._.!.y.c.m.m.m.m.n.s.n.v.Q.U P :.f P A > '.'.'.'.",
"'.'.d $.% 4 ~._._._.9.s.x.c.m.m.m.n...m.c.r.H.H.Z.0.e.p.6 '.'.'.",
"'.'.= p.l.k Y._._._.W c @.l.m.m.m.c.' c.m.@.+.c.s.X.p...'.'.'.'.",
"'.'.X _ c.| ^ _._._.! <.l.n.n.m.m.m.{ z.m.p.z.n.n.l.l.9 '.'.'.'.",
"'.'.'.q d.m.( ^ E.U.T ] ` 5.m.m.m.m.| *.j.f.f.f.g.>.> '.'.'.'.'.",
"'.'.'.* _ } [ 0 : j j % [ x.m.m.m.m.3.%.!._._.T.q.4 '.'.'.'.'.'.",
"'.'.'.'.'.'.'.'.'.'.O * r 3.m.m.m.m.t.> s H N '.'.'.'.'.'.'.'.'.",
"'.'.'.'.'.'.'.'.'.'.< G J.j.m.m.m.m.3.'.'.'.'.'.'.'.'.'.'.'.'.'.",
"'.'.'.'.'.'.'.'.'.'.+ 4 A.K r 9 7 > & '.'.'.'.'.'.'.'.'.'.'.'.'."
};
