/* XPM */
static char *_000[] = {
/* columns rows colors chars-per-pixel */
"32 32 135 2 ",
"   c None",
".  c #CFA20F",
"X  c #D3A707",
"o  c #D0A50C",
"O  c #D3A90B",
"+  c #D7B20E",
"@  c #DAB40D",
"#  c #DCB90F",
"$  c #CEA614",
"%  c #CDA319",
"&  c #D2AC12",
"*  c #D5B114",
"=  c #D9B613",
"-  c #DBBA14",
";  c #D4B119",
":  c #DBBB1A",
">  c #DFC217",
",  c #DEC11C",
"<  c #E0C116",
"1  c #E2C51C",
"2  c #E4C81F",
"3  c #DEC323",
"4  c #DEC429",
"5  c #DFC934",
"6  c #E0C524",
"7  c #E4CA24",
"8  c #E1C728",
"9  c #E4CC2B",
"0  c #E7D02C",
"q  c #E3CD34",
"w  c #E2CD3B",
"e  c #E6D135",
"r  c #E9D334",
"t  c #E5D13D",
"y  c #E9D43C",
"u  c #E1CE40",
"i  c #E6D342",
"p  c #E9D642",
"a  c #EAD846",
"s  c #E7D549",
"d  c #E9D74D",
"f  c #EBDA4C",
"g  c #E5D555",
"h  c #E7D857",
"j  c #ECDC55",
"k  c #E6D658",
"l  c #ECDD5B",
"z  c #F0DF5C",
"x  c #EEE05E",
"c  c #F2E15F",
"v  c #EBDE63",
"b  c #E7DC6D",
"n  c #EADE6B",
"m  c #F0DF61",
"M  c #ECDF70",
"N  c #EEE164",
"B  c #EEE16A",
"V  c #F0E265",
"C  c #F1E160",
"Z  c #EDE271",
"A  c #EDE072",
"S  c #ECE073",
"D  c #EDE272",
"F  c #EBE174",
"G  c #ECE075",
"H  c #EDE274",
"J  c #EDE176",
"K  c #ECE276",
"L  c #EEE274",
"P  c #EDE278",
"I  c #EDE27A",
"U  c #EEE27A",
"Y  c #EDE27E",
"T  c #EDE37F",
"R  c #EEE47D",
"E  c #F0E470",
"W  c #F0E474",
"Q  c #F0E474",
"!  c #F0E578",
"~  c #F0E67D",
"^  c #F1E67D",
"/  c #F0E57E",
"(  c #F0E67E",
")  c #E8DF81",
"_  c #EBE182",
"`  c #EEE382",
"'  c #EFE581",
"]  c #EBE287",
"[  c #EEE586",
"{  c #EEE484",
"}  c #EEE488",
"|  c #EFE68C",
" . c #EDE58E",
".. c #EFE58F",
"X. c #ECE48E",
"o. c #F1E681",
"O. c #F0E785",
"+. c #F1E787",
"@. c #F1E784",
"#. c #F1E888",
"$. c #F1E88A",
"%. c #F2E88A",
"&. c #F2E98B",
"*. c #EEE692",
"=. c #EEE694",
"-. c #EDE697",
";. c #ECE495",
":. c #EFE799",
">. c #F2E991",
",. c #F2EA90",
"<. c #F2EA92",
"1. c #F0E895",
"2. c #F2E995",
"3. c #F3EA94",
"4. c #F2EA95",
"5. c #F1E996",
"6. c #F3EA96",
"7. c #F1EA96",
"8. c #F2EA99",
"9. c #F3EB9A",
"0. c #F2EB9B",
"q. c #F1E99C",
"w. c #F3EC9F",
"e. c #F2EA9C",
"r. c #EEE7A0",
"t. c #EFE9A4",
"y. c #EEE9A8",
"u. c #EFEAAA",
"i. c #F2EBA0",
"p. c #F3ECA3",
"a. c #F3EDA3",
"s. c #F2ECA5",
"d. c #F2EBA8",
"f. c #F2ECAB",
"g. c #F3EDAB",
/* pixels */
"                          w 9 7 1 6 4                           ",
"                        9 0 q 7 1 6 , - :                       ",
"                    w r r r p q 9 9 2 - # =                     ",
"                  u i v j j j s w r 9 1 < = ;                   ",
"                  d j K Q B v l p q 9 9 7 : + $                 ",
"                p N B ' T K Z B a y q 9 8 1 # X                 ",
"              d f j E %.] _ ! B j p y w 9 7 < @ +               ",
"              h j N ^ *.| [ T B B v h s t e 9 7 : ;             ",
"            j j v B K 2.&.#.U b B n B l j h s q 1 =             ",
"            j N V b B 2.>.%.o.U b N v l j j g r 7 #             ",
"          j j B B n F >.2.2.O.Z B v N j j h d t 9 - o           ",
"          s j v B B ^ =.8.2.K V c B n N v v f p q # o           ",
"          i k l V B >.8.=.Z V c c V B b v N j d 7 : O           ",
"          i h v B O.8.q.U c c c c c V B v l j f 7 : * o         ",
"        u i j Z | w.i.` V c c c c c c V v l j f 8 < # $         ",
"        h B %.p.d.r.} V c c c c c c c c c v h s 7 < # X         ",
"        v ^ 8.p.f.u.| V c c c c c c c c c m l s e 1 # X         ",
"        v ' q.s.u.g.d.{ V c c c c c c c V v j f t 1 = &         ",
"        B T :.y.g.g.g.s.Z c V c c c c V v l j p t q : X         ",
"        B ' ;.f.f.s.f.f.| n c c c c z l l f f y y 5 : X         ",
"        B { 8.u.f.s.d.y.i.R v c c V v N h a y y w 7 - &         ",
"        n ^ 2.f.d.r.r.q.2.2.R M V n B l f i e w 9 7 - O         ",
"        B Z K o.^ ) =.2.O.o.P K b B B j a y w q 9 1 = o         ",
"        k d l B Z B n R O.W B v v v B j a t e q 9 1 # .         ",
"          i f v B N N v R K n B j j h f s r 0 9 4 : * %         ",
"          e i s j l l j n b l x j j d w 9 7 1 2 1 : &           ",
"          w q q y f j f h v l j f d q 9 8 2 1 1 - - *           ",
"            9 7 9 r p s d x l d p q 9 2 2 3 1 , = +             ",
"              7 7 9 q r d j f p t 9 7 1 1 , : - #               ",
"                8 8 8 7 p f a i e 7 1 < < : - -                 ",
"                  8 1 3 9 9 q 9 9 , - # = = :                   ",
"                      q 4 3 1 > - = ; & ;                       "
};
