/* XPM */
static char *_000[] = {
/* columns rows colors chars-per-pixel */
"32 32 66 1 ",
"  c None",
". c #181425",
"X c #2B1E2E",
"o c #1D212E",
"O c #1F292D",
"+ c #1E2531",
"@ c #30202F",
"# c #212E30",
"$ c #202A34",
"% c #3B2735",
"& c #223139",
"* c #24353C",
"= c #24363C",
"- c #25393C",
"; c #34303A",
": c #442B39",
"> c #472C38",
", c #44363F",
"< c #4F303D",
"1 c #2A493A",
"2 c #2A4B3E",
"3 c #263C41",
"4 c #263E42",
"5 c #673D46",
"6 c #683C46",
"7 c #693D48",
"8 c #274144",
"9 c #284245",
"0 c #294648",
"q c #2C4D4C",
"w c #2C5140",
"e c #2E5546",
"r c #2F5947",
"t c #2E5449",
"y c #2E5350",
"u c #2F5753",
"i c #315C53",
"p c #315E52",
"a c #326345",
"s c #346747",
"d c #346947",
"f c #32624B",
"g c #366E49",
"h c #37704A",
"j c #3A7B4F",
"k c #3B7D4F",
"l c #326152",
"z c #346552",
"x c #356A51",
"c c #376F51",
"v c #387450",
"b c #397650",
"n c #6F4049",
"m c #8B4E54",
"M c #9B545A",
"N c #A65C5D",
"B c #63AB3F",
"V c #40834D",
"C c #42834C",
"Z c #43864C",
"A c #45894B",
"S c #4A8E49",
"D c #59A043",
"F c #5CA242",
"G c #5EA541",
"H c #61A840",
/* pixels */
"            .+2112+.            ",
"           rasVAAVsar           ",
"        .gbkSDHBBHDSkbg.        ",
"       OhkVGBBBBBBBBGVkhO       ",
"      #dkkFBBBBBBBBBBFkkd#      ",
"     .fkkkBBBBBBBBBBBBkkkf.     ",
"     ekkkkVGBBBBBBBBGVkkkke     ",
"    -bkkkkkkSDHBBHDSkkkkkkb-    ",
"    tkkkkkkkkkZAAZkkkkkkkkkt    ",
"   8bkkkkkkkkkkkkkkkkkkkkkkb8   ",
"   wkkkkkkkkkkkkkkkkkkkkkkkkw   ",
"  .xkkkkkkkkkkkkkkkkkkkkkkkkx.  ",
"  *bkkkkkkkkkkkkkkkkkkkkkkkkb*  ",
"  0kkkkkkkkkkkkkkkkkkkkkkkkkk0  ",
"  0kkkkkkkkkkkkkkkkkkkkkkkkkk0  ",
"  0kkkkkkkkkkkkkkkkkkkkkkkkkk0  ",
"  qkkkkkkkkkkkkkkkkkkkkkkkkkkq  ",
"  +ckkkkkkkkkkkkkkkkkkkkkkkkc+  ",
"  .ibkkkkkkkkkkkkkkkkkkkkkkbi.  ",
"   *ixkkkkkkkxzuuzxkkkkkkkxi*   ",
"   &yulbjkjcluuuuuulcjkjbluy&   ",
"   .0uuuiliuuuuuuuuuuiliuuu0.   ",
"    $uuuuuuuuuuuuuuuuuuuuuu$    ",
"     3uuuuuuuuuuuuuuuuuuuu3     ",
"      3uuuuuuuuuuuuuuuuuu3      ",
"       o*uuuuuuuuuuuuuu*o       ",
"          .900yuuy009.          ",
"           >6<,;;,<6>           ",
"           6M75mm57M6           ",
"           %:.<NN<.:%           ",
"              @nn@              ",
"               XX               "
};
